<?xml version="1.0" encoding="UTF-8" standalone="no"?>
<!DOCTYPE svg PUBLIC "-//W3C//DTD SVG 1.1//EN" "http://www.w3.org/Graphics/SVG/1.1/DTD/svg11.dtd">
<svg width="100%" height="100%" viewBox="0 0 839 839" version="1.1" xmlns="http://www.w3.org/2000/svg" xmlns:xlink="http://www.w3.org/1999/xlink" xml:space="preserve" xmlns:serif="http://www.serif.com/" style="fill-rule:evenodd;clip-rule:evenodd;stroke-linejoin:round;stroke-miterlimit:2;">
    <g transform="matrix(1,0,0,1,-80.5,-80.5)">
        <g transform="matrix(0.839,0,0,0.839,80.5,80.5)">
            <path d="M500,0C775.958,0 1000,224.042 1000,500C1000,775.958 775.958,1000 500,1000C224.042,1000 0,775.958 0,500C0,224.042 224.042,0 500,0ZM500,56.317C255.125,56.317 56.317,255.125 56.317,500C56.317,744.875 255.125,943.683 500,943.683C744.875,943.683 943.683,744.875 943.683,500C943.683,255.125 744.875,56.317 500,56.317Z" style="fill:white;"/>
        </g>
        <g transform="matrix(1,0,0,1,-23,1.13687e-13)">
            <circle cx="523" cy="500" r="77" style="fill:white;"/>
        </g>
        <g transform="matrix(0.545455,0,0,1.27372,227.273,310.215)">
            <path d="M577,218.09L577,390.026C577,398.771 568.888,407.158 554.447,413.342C540.007,419.526 520.422,423 500,423L500,423C457.474,423 423,408.237 423,390.026C423,332.086 423,218.09 423,218.09C446.323,222.87 472.437,225.547 500,225.547C527.563,225.547 553.677,222.87 577,218.09Z" style="fill:white;"/>
        </g>
        <g transform="matrix(3.33995e-17,0.545455,-0.981752,6.0115e-17,915.281,227.273)">
            <path d="M423,333.363L423,191.781C423,180.435 431.112,169.553 445.553,161.53C459.993,153.507 479.578,149 500,149L500,149C542.526,149 577,168.154 577,191.781C577,246.245 577,333.363 577,333.363C553.677,327.161 527.563,323.688 500,323.688C472.437,323.688 446.323,327.161 423,333.363Z" style="fill:white;"/>
        </g>
    </g>
</svg>
