<?xml version="1.0" encoding="UTF-8" standalone="no"?>
<!DOCTYPE svg PUBLIC "-//W3C//DTD SVG 1.1//EN" "http://www.w3.org/Graphics/SVG/1.1/DTD/svg11.dtd">
<svg width="100%" height="100%" viewBox="0 0 512 512" version="1.1" xmlns="http://www.w3.org/2000/svg" xmlns:xlink="http://www.w3.org/1999/xlink" xml:space="preserve" xmlns:serif="http://www.serif.com/" style="fill-rule:evenodd;clip-rule:evenodd;stroke-linecap:round;stroke-linejoin:round;stroke-miterlimit:1.5;">
    <g transform="matrix(1.00712,0,0,1.00712,33.5731,30.8203)">
        <path d="M62.085,265.348L23.657,265.348C12.133,265.348 2.777,255.992 2.777,244.468L2.777,202.709C2.777,191.185 12.133,181.829 23.657,181.829L62.085,181.829C65.904,167.293 71.667,153.542 79.081,140.871L51.886,113.677C43.738,105.528 43.738,92.297 51.886,84.148L81.415,54.62C89.563,46.471 102.795,46.471 110.943,54.62L138.138,81.814C150.809,74.401 164.56,68.637 179.095,64.819L179.095,26.39C179.095,14.866 188.451,5.51 199.975,5.51L241.735,5.51C253.259,5.51 262.615,14.866 262.615,26.39L262.615,64.819C277.15,68.637 290.901,74.401 303.572,81.814L330.767,54.62C338.915,46.471 352.147,46.471 360.295,54.62L389.824,84.148C397.972,92.297 397.972,105.528 389.824,113.677L362.629,140.871C370.042,153.542 375.806,167.293 379.625,181.829L418.053,181.829C429.577,181.829 438.933,191.185 438.933,202.709L438.933,244.468C438.933,255.992 429.577,265.348 418.053,265.348L379.625,265.348C375.806,279.884 370.042,293.635 362.629,306.305L389.824,333.5C397.972,341.649 397.972,354.88 389.824,363.028L360.295,392.557C352.147,400.706 338.915,400.706 330.767,392.557L303.572,365.362C290.901,372.776 277.15,378.54 262.615,382.358L262.615,420.786C262.615,432.31 253.259,441.666 241.735,441.666L199.975,441.666C188.451,441.666 179.095,432.31 179.095,420.786L179.095,382.358C164.56,378.54 150.809,372.776 138.138,365.362L110.943,392.557C102.795,400.706 89.563,400.706 81.415,392.557L51.886,363.028C43.738,354.88 43.738,341.649 51.886,333.5L79.081,306.305C71.667,293.635 65.904,279.884 62.085,265.348ZM220.855,117.449C162.275,117.449 114.716,165.009 114.716,223.588C114.716,282.168 162.275,329.727 220.855,329.727C279.435,329.727 326.994,282.168 326.994,223.588C326.994,165.009 279.435,117.449 220.855,117.449Z" style="fill:rgb(73,117,157);stroke:rgb(39,56,114);stroke-width:2.13px;"/>
    </g>
</svg>
