<?xml version="1.0" encoding="UTF-8"?>
<svg xmlns="http://www.w3.org/2000/svg" viewBox="0 0 1000 1000">
  <defs>
    <style>
      .cls-1 {
        fill: #3fb4e8;
      }

      .cls-1, .cls-2 {
        stroke-width: 0px;
      }

      .cls-2, .cls-3 {
        fill: #fff;
      }

      .cls-3 {
        stroke: #fff;
        stroke-miterlimit: 10;
      }
    </style>
  </defs>
  <g id="Livello_2" data-name="Livello 2">
    <path class="cls-3" d="M829.24,498.86c-.4-43.44-29.51-79.88-69.14-91.51-3.09-8.67-6.59-17.13-10.49-25.37,20.41-36.9,14.73-84.27-16.82-115.25-30.99-30.43-77.33-35.59-113.57-15.79-8.24-3.95-16.71-7.5-25.38-10.64-11.69-40.48-49.19-69.92-93.39-69.51-43.19.4-79.47,29.18-91.3,68.46-9.01,3.14-17.8,6.73-26.35,10.75-36.78-19.9-83.71-14.09-114.47,17.24-30,30.55-35.46,76.02-16.64,112.03-4.33,8.9-8.2,18.06-11.57,27.47-39.55,12.26-68.12,49.31-67.72,92.85.39,42.54,28.32,78.38,66.7,90.76,3.37,9.74,7.27,19.23,11.67,28.44-18.91,36.54-12.81,82.59,18.09,112.93,30.34,29.79,75.39,35.37,111.28,17.01,9.19,4.44,18.67,8.36,28.39,11.78,12.44,39.26,49.34,67.55,92.67,67.15,42.8-.39,78.81-28.65,90.98-67.38,9.39-3.32,18.55-7.13,27.45-11.41,36.67,19.41,83.15,13.45,113.7-17.66,30.24-30.8,35.53-76.75,16.16-112.89,4.04-8.51,7.66-17.26,10.83-26.23,40.19-11.87,69.35-49.24,68.94-93.22ZM500,740.67c-132.92,0-240.67-107.75-240.67-240.67,0-132.92,107.75-240.67,240.67-240.67,132.92,0,240.67,107.75,240.67,240.67s-107.75,240.67-240.67,240.67Z"/>
    <path class="cls-3" d="M505.85,321.61c17.63,26.8,27.88,58.81,27.88,93.19,0,94.38-77.2,170.88-172.43,170.88-6.24,0-12.4-.34-18.47-.98,30.16,55.85,89.23,93.8,157.16,93.8,98.58,0,178.5-79.92,178.5-178.5s-76.77-175.3-172.64-178.39Z"/>
  </g>
  <g id="Livello_3" data-name="Livello 3">
    <g>
      <path class="cls-1" d="M500.28,837.66c-23,0-44.9-7.24-63.32-20.93-16.72-12.43-29.21-29.1-36.35-48.44-6.95-2.58-13.8-5.42-20.45-8.48-13.72,6.21-28.8,9.47-43.92,9.47-28,0-54.42-10.8-74.4-30.42-16.54-16.24-27.12-36.91-30.6-59.77-3.11-20.43-.11-41.68,8.44-60.38-3.05-6.69-5.87-13.55-8.4-20.49-41.01-15.38-68.48-54.35-68.89-98.53-.21-23.31,6.99-45.51,20.85-64.2,12.39-16.71,29.7-29.6,49.15-36.69,2.49-6.58,5.23-13.09,8.19-19.45-18.59-40.04-10.6-87.32,20.62-119.11,20.13-20.51,47.06-31.8,75.8-31.8,15.93,0,31.74,3.6,46.03,10.46,5.96-2.67,12.03-5.15,18.16-7.41,6.87-19.28,19.45-36.54,35.8-49,18.34-13.98,40.26-21.48,63.38-21.69h.99c23.48,0,45.74,7.51,64.38,21.73,16.68,12.73,29.39,30.38,36.17,50.11,5.79,2.21,11.52,4.61,17.12,7.17,14.39-6.97,30.32-10.63,46.39-10.63,27.99,0,54.41,10.8,74.39,30.42,32.7,32.1,40.97,81.85,20.95,122.64,2.53,5.6,4.9,11.32,7.07,17.09,19.46,6.77,36.89,19.33,49.5,35.76,14.13,18.4,21.71,40.42,21.92,63.68.42,45.5-28.62,86.45-71.22,101.33-2.28,6.1-4.77,12.13-7.45,18.03,8.77,18.5,12.08,39.59,9.33,59.96-3.08,22.84-13.27,43.62-29.46,60.11-20.14,20.51-47.06,31.81-75.81,31.81h0c-15.6,0-31.1-3.46-45.15-10.04-6.31,2.9-12.8,5.6-19.4,8.06-15.18,41.45-54.27,69.21-98.81,69.62h-.99ZM500,269.33c-127.19,0-230.67,103.48-230.67,230.67s103.48,230.67,230.67,230.67,230.67-103.48,230.67-230.67-103.48-230.67-230.67-230.67Z"/>
      <path class="cls-2" d="M501.35,170.8c43.8,0,80.88,29.31,92.49,69.52,8.67,3.13,17.14,6.68,25.38,10.64,14.34-7.84,30.26-11.77,46.19-11.77,24.32,0,48.66,9.16,67.38,27.55,31.55,30.98,37.23,78.35,16.82,115.25,3.9,8.24,7.41,16.71,10.49,25.37,39.63,11.62,68.74,48.07,69.14,91.51.4,43.99-28.76,81.35-68.94,93.22-3.17,8.96-6.79,17.72-10.83,26.23,19.37,36.14,14.08,82.09-16.16,112.89-18.84,19.19-43.75,28.81-68.68,28.81-15.48,0-30.98-3.71-45.03-11.15-8.89,4.28-18.06,8.08-27.45,11.41-12.17,38.74-48.18,66.99-90.98,67.38-.3,0-.6,0-.9,0-42.94,0-79.42-28.17-91.77-67.15-9.72-3.41-19.2-7.34-28.39-11.78-13.73,7.03-28.8,10.55-43.88,10.55-24.32,0-48.66-9.17-67.4-27.56-30.9-30.33-37-76.38-18.09-112.93-4.4-9.21-8.29-18.7-11.67-28.44-38.38-12.38-66.31-48.21-66.7-90.76-.4-43.54,28.17-80.58,67.72-92.85,3.37-9.4,7.24-18.57,11.57-27.47-18.82-36-13.36-81.47,16.64-112.03,18.84-19.19,43.74-28.81,68.67-28.81,15.77,0,31.55,3.85,45.81,11.56,8.55-4.02,17.35-7.61,26.35-10.75,11.84-39.29,48.11-68.07,91.3-68.46.3,0,.6,0,.9,0M500,740.67c132.92,0,240.67-107.75,240.67-240.67s-107.75-240.67-240.67-240.67-240.67,107.75-240.67,240.67c0,132.92,107.75,240.67,240.67,240.67M501.35,150.8h0c-.36,0-.72,0-1.08,0-25.3.23-49.28,8.44-69.35,23.74-16.63,12.67-29.69,29.88-37.48,49.19-3.47,1.34-6.92,2.75-10.34,4.22-14.49-6.24-30.24-9.5-46.1-9.5-31.45,0-60.91,12.36-82.94,34.8-17.57,17.89-28.69,40.44-32.16,65.2-2.92,20.84-.25,41.67,7.73,60.84-1.74,3.89-3.4,7.83-4.97,11.8-19.52,8.02-36.82,21.42-49.45,38.46-15.16,20.45-23.04,44.74-22.81,70.25.43,46.77,28.59,88.21,71.07,106.09,1.66,4.35,3.43,8.66,5.29,12.91-7.94,19.4-10.57,41-7.41,61.82,3.81,25.02,15.38,47.63,33.48,65.4,21.86,21.46,50.77,33.29,81.41,33.29,15,0,29.96-2.94,43.81-8.55,4.23,1.87,8.52,3.65,12.87,5.34,8.02,19.33,21.04,36.03,38.08,48.69,20.16,14.98,44.12,22.91,69.28,22.91.36,0,.72,0,1.09,0,25.05-.23,48.85-8.3,68.82-23.34,16.83-12.67,29.69-29.31,37.6-48.53,3.96-1.54,7.87-3.17,11.72-4.87,14.22,5.97,29.63,9.09,45.12,9.09,31.46,0,60.91-12.36,82.95-34.8,17.71-18.04,28.86-40.79,32.24-65.78,2.85-21.07-.01-42.07-8.27-61.35,1.47-3.37,2.87-6.78,4.22-10.21,19.79-7.87,37.37-21.23,50.23-38.35,15.45-20.57,23.5-45.07,23.26-70.85-.23-25.45-8.53-49.54-23.99-69.68-12.83-16.71-30.22-29.76-49.72-37.47-1.22-3.09-2.48-6.15-3.8-9.2,8.61-19.61,11.72-41.6,8.77-62.93-3.54-25.63-15.2-48.77-33.69-66.94-21.86-21.46-50.76-33.28-81.4-33.28-15.99,0-31.85,3.31-46.44,9.65-3.05-1.34-6.14-2.63-9.24-3.87-7.73-19.8-20.94-37.43-37.93-50.39-20.39-15.56-44.75-23.78-70.44-23.78h0ZM500,720.67c-58.94,0-114.36-22.95-156.03-64.63-41.68-41.68-64.63-97.09-64.63-156.03,0-121.68,98.99-220.67,220.67-220.67s220.67,98.99,220.67,220.67-98.99,220.67-220.67,220.67h0Z"/>
    </g>
    <g>
      <path class="cls-1" d="M500,688.5c-69.37,0-132.96-37.95-165.96-99.05l-9.01-16.69,18.86,1.99c5.79.61,11.65.92,17.42.92,89.56,0,162.43-72.17,162.43-160.88,0-31.27-9.07-61.6-26.24-87.69l-10.6-16.11,19.27.62c49.05,1.58,94.9,21.88,129.13,57.15,34.3,35.35,53.19,81.96,53.19,131.23,0,103.94-84.56,188.5-188.5,188.5Z"/>
      <path class="cls-2" d="M505.85,321.61c95.87,3.09,172.64,81.77,172.64,178.39s-79.92,178.5-178.5,178.5c-67.93,0-126.99-37.95-157.16-93.8,6.07.64,12.23.98,18.47.98,95.23,0,172.43-76.51,172.43-170.88,0-34.38-10.25-66.38-27.88-93.19M467.95,300.37l21.19,32.22c16.09,24.46,24.59,52.88,24.59,82.2,0,83.2-68.38,150.88-152.43,150.88-5.41,0-10.92-.29-16.37-.87l-37.72-3.98,18.03,33.38c34.74,64.33,101.71,104.3,174.76,104.3,26.79,0,52.79-5.25,77.27-15.61,23.64-10,44.87-24.31,63.09-42.53s32.53-39.45,42.53-63.09c10.36-24.48,15.61-50.48,15.61-77.27,0-51.89-19.89-100.97-56.02-138.2-36.04-37.15-84.33-58.52-135.98-60.19l-38.55-1.24h0Z"/>
    </g>
  </g>
</svg>