<?xml version="1.0" encoding="UTF-8" standalone="no"?>
<!DOCTYPE svg PUBLIC "-//W3C//DTD SVG 1.1//EN" "http://www.w3.org/Graphics/SVG/1.1/DTD/svg11.dtd">
<svg width="100%" height="100%" viewBox="0 0 512 512" version="1.1" xmlns="http://www.w3.org/2000/svg" xmlns:xlink="http://www.w3.org/1999/xlink" xml:space="preserve" xmlns:serif="http://www.serif.com/" style="fill-rule:evenodd;clip-rule:evenodd;stroke-linecap:round;stroke-linejoin:round;stroke-miterlimit:1.5;">
    <g transform="matrix(1.02254,0,0,0.801209,-9.48994,102.24)">
        <path d="M488.848,137.757L488.848,366.966C488.848,430.218 448.61,481.571 399.049,481.571L120.227,481.571C70.666,481.571 30.429,430.218 30.429,366.966L30.429,137.757C30.429,74.505 70.666,23.152 120.227,23.152L399.049,23.152C448.61,23.152 488.848,74.505 488.848,137.757ZM30.429,55.195L30.429,-25.336C30.429,-65.303 55.854,-97.751 87.17,-97.751L200.652,-97.751C231.968,-97.751 257.393,-65.303 257.393,-25.336L257.393,-16.478L120.227,-16.478C70.666,-16.478 30.429,24.968 30.429,55.195Z" style="fill:rgb(255,210,0);stroke:rgb(197,164,56);stroke-width:2.33px;"/>
    </g>
</svg>
