<?xml version="1.0" encoding="UTF-8" standalone="no"?>
<!DOCTYPE svg PUBLIC "-//W3C//DTD SVG 1.1//EN" "http://www.w3.org/Graphics/SVG/1.1/DTD/svg11.dtd">
<svg width="100%" height="100%" viewBox="0 0 512 512" version="1.1" xmlns="http://www.w3.org/2000/svg" xmlns:xlink="http://www.w3.org/1999/xlink" xml:space="preserve" xmlns:serif="http://www.serif.com/" style="fill-rule:evenodd;clip-rule:evenodd;stroke-linecap:round;stroke-linejoin:round;stroke-miterlimit:1.5;">
    <g transform="matrix(0.965642,0,0,1,32.6791,36.0513)">
        <path d="M414.514,328.16L414.514,355.033C414.514,362.449 408.279,368.47 400.599,368.47L253.131,368.47C245.452,368.47 239.217,362.449 239.217,355.033L239.217,328.16C239.217,320.744 245.452,314.723 253.131,314.723L400.599,314.723C408.279,314.723 414.514,320.744 414.514,328.16ZM149.79,228.041C152.013,225.895 153.262,222.984 153.262,219.949C153.262,216.914 152.013,214.003 149.79,211.857L52.537,117.945C46.514,112.129 46.514,102.684 52.537,96.867L74.365,75.79C80.388,69.973 90.169,69.973 96.192,75.79L211.036,186.688C211.678,187.14 212.292,187.645 212.872,188.205L234.699,209.282C237.744,212.223 239.25,216.091 239.216,219.949C239.25,223.806 237.744,227.675 234.699,230.615L212.872,251.693C212.292,252.252 211.678,252.758 211.036,253.21L96.192,364.107C90.169,369.924 80.388,369.924 74.365,364.107L52.537,343.03C46.514,337.213 46.514,327.769 52.537,321.952L149.79,228.041Z" style="fill:rgb(0,86,131);stroke:rgb(35,68,105);stroke-width:2.18px;"/>
    </g>
</svg>
