<?xml version="1.0" encoding="UTF-8" standalone="no"?>
<!DOCTYPE svg PUBLIC "-//W3C//DTD SVG 1.1//EN" "http://www.w3.org/Graphics/SVG/1.1/DTD/svg11.dtd">
<svg width="100%" height="100%" viewBox="0 0 512 512" version="1.1" xmlns="http://www.w3.org/2000/svg" xmlns:xlink="http://www.w3.org/1999/xlink" xml:space="preserve" xmlns:serif="http://www.serif.com/" style="fill-rule:evenodd;clip-rule:evenodd;stroke-linecap:round;stroke-linejoin:round;stroke-miterlimit:1.5;">
    <g transform="matrix(0.73251,0,0,0.73251,15.9661,153.635)">
        <path d="M62.085,265.348L23.657,265.348C12.133,265.348 2.777,255.992 2.777,244.468L2.777,202.709C2.777,191.185 12.133,181.829 23.657,181.829L62.085,181.829C65.904,167.293 71.667,153.542 79.081,140.871L51.886,113.677C43.738,105.528 43.738,92.297 51.886,84.148L81.415,54.62C89.563,46.471 102.795,46.471 110.943,54.62L138.138,81.814C150.809,74.401 164.56,68.637 179.095,64.819L179.095,26.39C179.095,14.866 188.451,5.51 199.975,5.51L241.735,5.51C253.259,5.51 262.615,14.866 262.615,26.39L262.615,64.819C277.15,68.637 290.901,74.401 303.572,81.814L330.767,54.62C338.915,46.471 352.147,46.471 360.295,54.62L389.824,84.148C397.972,92.297 397.972,105.528 389.824,113.677L362.629,140.871C370.042,153.542 375.806,167.293 379.625,181.829L418.053,181.829C429.577,181.829 438.933,191.185 438.933,202.709L438.933,244.468C438.933,255.992 429.577,265.348 418.053,265.348L379.625,265.348C375.806,279.884 370.042,293.635 362.629,306.305L389.824,333.5C397.972,341.649 397.972,354.88 389.824,363.028L360.295,392.557C352.147,400.706 338.915,400.706 330.767,392.557L303.572,365.362C290.901,372.776 277.15,378.54 262.615,382.358L262.615,420.786C262.615,432.31 253.259,441.666 241.735,441.666L199.975,441.666C188.451,441.666 179.095,432.31 179.095,420.786L179.095,382.358C164.56,378.54 150.809,372.776 138.138,365.362L110.943,392.557C102.795,400.706 89.563,400.706 81.415,392.557L51.886,363.028C43.738,354.88 43.738,341.649 51.886,333.5L79.081,306.305C71.667,293.635 65.904,279.884 62.085,265.348ZM220.855,117.449C162.275,117.449 114.716,165.009 114.716,223.588C114.716,282.168 162.275,329.727 220.855,329.727C279.435,329.727 326.994,282.168 326.994,223.588C326.994,165.009 279.435,117.449 220.855,117.449ZM426.348,79.888L404.302,73.981C397.691,72.21 393.762,65.404 395.533,58.793L401.953,34.836C403.724,28.225 410.53,24.295 417.141,26.067L439.187,31.974C443.612,24.222 449.033,17.219 455.233,11.09L443.812,-8.692C440.39,-14.619 442.424,-22.21 448.351,-25.632L469.831,-38.033C475.758,-41.455 483.349,-39.422 486.771,-33.494L498.192,-13.712C506.601,-16.018 515.375,-17.211 524.302,-17.167L530.209,-39.213C531.98,-45.824 538.786,-49.753 545.397,-47.982L569.354,-41.562C575.965,-39.791 579.894,-32.985 578.123,-26.374L572.216,-4.328C579.968,0.097 586.971,5.517 593.1,11.718L612.882,0.297C618.809,-3.125 626.4,-1.091 629.822,4.836L642.223,26.316C645.645,32.243 643.611,39.834 637.684,43.256L617.902,54.677C620.208,63.085 621.401,71.86 621.357,80.786L643.403,86.694C650.014,88.465 653.943,95.271 652.172,101.882L645.752,125.839C643.981,132.45 637.175,136.379 630.564,134.608L608.518,128.701C604.093,136.453 598.673,143.455 592.472,149.585L603.893,169.367C607.315,175.294 605.281,182.885 599.354,186.307L577.874,198.708C571.947,202.13 564.356,200.096 560.934,194.169L549.513,174.387C541.104,176.692 532.33,177.885 523.404,177.841L517.496,199.887C515.725,206.499 508.919,210.428 502.308,208.656L478.351,202.237C471.74,200.466 467.811,193.66 469.582,187.049L475.489,165.003C467.737,160.578 460.734,155.157 454.605,148.956L434.823,160.378C428.896,163.8 421.305,161.766 417.883,155.838L405.482,134.359C402.06,128.432 404.094,120.841 410.021,117.419L429.803,105.998C427.497,97.589 426.305,88.814 426.348,79.888ZM540.168,19.446C506.562,10.441 471.966,30.415 462.962,64.022C453.957,97.628 473.93,132.223 507.537,141.228C541.144,150.233 575.739,130.26 584.744,96.653C593.748,63.046 573.775,28.451 540.168,19.446ZM281.452,-43.38L263.883,-43.38C258.615,-43.38 254.337,-47.658 254.337,-52.926L254.337,-72.018C254.337,-77.287 258.615,-81.565 263.883,-81.565L281.452,-81.565C283.198,-88.21 285.833,-94.497 289.223,-100.29L276.79,-112.723C273.064,-116.449 273.064,-122.498 276.79,-126.223L290.29,-139.724C294.015,-143.449 300.065,-143.449 303.79,-139.724L316.223,-127.29C322.016,-130.68 328.303,-133.315 334.949,-135.061L334.949,-152.63C334.949,-157.899 339.226,-162.176 344.495,-162.176L363.587,-162.176C368.856,-162.176 373.133,-157.899 373.133,-152.63L373.133,-135.061C379.779,-133.315 386.066,-130.68 391.858,-127.29L404.292,-139.724C408.017,-143.449 414.066,-143.449 417.792,-139.724L431.292,-126.223C435.018,-122.498 435.018,-116.449 431.292,-112.723L418.859,-100.29C422.248,-94.497 424.884,-88.21 426.629,-81.565L444.198,-81.565C449.467,-81.565 453.745,-77.287 453.745,-72.018L453.745,-52.926C453.745,-47.658 449.467,-43.38 444.198,-43.38L426.629,-43.38C424.884,-36.734 422.248,-30.448 418.859,-24.655L431.292,-12.222C435.018,-8.496 435.018,-2.447 431.292,1.279L417.792,14.779C414.066,18.504 408.017,18.504 404.292,14.779L391.858,2.346C386.066,5.735 379.779,8.37 373.133,10.116L373.133,27.685C373.133,32.954 368.856,37.231 363.587,37.231L344.495,37.231C339.226,37.231 334.949,32.954 334.949,27.685L334.949,10.116C328.303,8.37 322.016,5.735 316.223,2.346L303.79,14.779C300.065,18.504 294.015,18.504 290.29,14.779L276.79,1.279C273.064,-2.447 273.064,-8.496 276.79,-12.222L289.223,-24.655C285.833,-30.448 283.198,-36.734 281.452,-43.38ZM354.041,-110.998C327.259,-110.998 305.515,-89.255 305.515,-62.472C305.515,-35.69 327.259,-13.946 354.041,-13.946C380.823,-13.946 402.567,-35.69 402.567,-62.472C402.567,-89.255 380.823,-110.998 354.041,-110.998Z" style="fill:rgb(191,191,191);stroke:rgb(126,126,126);stroke-width:2.92px;"/>
    </g>
</svg>
