<?xml version="1.0" encoding="UTF-8" standalone="no"?>
<!DOCTYPE svg PUBLIC "-//W3C//DTD SVG 1.1//EN" "http://www.w3.org/Graphics/SVG/1.1/DTD/svg11.dtd">
<svg width="100%" height="100%" viewBox="0 0 512 512" version="1.1" xmlns="http://www.w3.org/2000/svg" xmlns:xlink="http://www.w3.org/1999/xlink" xml:space="preserve" xmlns:serif="http://www.serif.com/" style="fill-rule:evenodd;clip-rule:evenodd;stroke-linecap:round;stroke-linejoin:round;stroke-miterlimit:1.5;">
    <g transform="matrix(1.01971,0,0,1.01971,-11.1717,10.7007)">
        <path d="M471.719,117.578C483.168,129.027 489.6,144.557 489.6,160.749L489.6,354.354C489.6,417.16 438.61,468.151 375.804,468.151L148.211,468.151C85.405,468.151 34.414,417.16 34.414,354.354L34.414,126.761C34.414,63.955 85.405,12.965 148.211,12.965L341.816,12.965C358.009,12.965 373.538,19.397 384.987,30.846L471.719,117.578ZM262.007,231.466C203.896,231.466 156.716,278.645 156.716,336.757C156.716,394.869 203.896,442.048 262.007,442.048C320.119,442.048 367.298,394.869 367.298,336.757C367.298,278.645 320.119,231.466 262.007,231.466ZM334.693,64.469C334.693,57.347 328.911,51.564 321.788,51.564L149.334,51.564C142.211,51.564 136.429,57.347 136.429,64.469L136.429,90.278C136.429,97.401 142.211,103.183 149.334,103.183L321.788,103.183C328.911,103.183 334.693,97.401 334.693,90.278L334.693,64.469Z" style="fill:rgb(0,139,234);stroke:rgb(0,66,124);stroke-width:2.1px;"/>
    </g>
</svg>
