<?xml version="1.0" encoding="UTF-8" standalone="no"?>
<!DOCTYPE svg PUBLIC "-//W3C//DTD SVG 1.1//EN" "http://www.w3.org/Graphics/SVG/1.1/DTD/svg11.dtd">
<svg width="100%" height="100%" viewBox="0 0 1000 862" version="1.1" xmlns="http://www.w3.org/2000/svg" xmlns:xlink="http://www.w3.org/1999/xlink" xml:space="preserve" xmlns:serif="http://www.serif.com/" style="fill-rule:evenodd;clip-rule:evenodd;stroke-linejoin:round;stroke-miterlimit:2;">
    <g transform="matrix(1,0,0,1,1.13687e-13,-69.1854)">
        <g id="Code" transform="matrix(0.861629,0,0,0.861629,69.1854,69.1854)">
            <path d="M865.454,0C939.762,0 1000,60.238 1000,134.546L1000,865.454C1000,939.762 939.762,1000 865.454,1000L134.546,1000C60.238,1000 0,939.762 0,865.454L0,134.546C0,60.238 60.238,0 134.546,0L865.454,0ZM947,187.546C947,151.862 932.825,117.64 907.592,92.408C882.36,67.175 848.138,53 812.454,53L187.546,53C151.862,53 117.64,67.175 92.408,92.408C67.175,117.64 53,151.862 53,187.546L53,812.454C53,848.138 67.175,882.36 92.408,907.592C117.64,932.825 151.862,947 187.546,947L812.454,947C848.138,947 882.36,932.825 907.592,907.592C932.825,882.36 947,848.138 947,812.454L947,187.546Z" style="fill:rgb(74,175,255);"/>
            <g transform="matrix(0.486925,0.486925,-0.486925,0.486925,344.167,28.7062)">
                <path d="M612.401,355.521C628.755,371.095 638.947,393.079 638.947,417.445L638.947,722.285C638.947,769.594 600.594,807.947 553.285,807.947L553.283,807.947C530.65,807.947 508.944,798.956 492.941,782.952C476.937,766.949 467.947,745.243 467.947,722.611L467.947,500L245.5,500C198.28,500 160,461.72 160,414.5C160,367.28 198.28,329 245.5,329L550.5,329C574.853,329 596.829,339.182 612.401,355.521Z" style="fill:rgb(74,175,255);"/>
            </g>
            <g transform="matrix(0.688615,0,0,0.688615,359.087,364.493)">
                <path d="M550.503,329C573.178,329 594.925,338.008 610.959,354.041C626.992,370.075 636,391.822 636,414.497C636,414.499 636,414.501 636,414.503C636,437.178 626.992,458.925 610.959,474.959C594.925,490.992 573.178,500 550.503,500C464.23,500 331.77,500 245.497,500C222.822,500 201.075,490.992 185.041,474.959C169.008,458.925 160,437.178 160,414.503C160,414.501 160,414.499 160,414.497C160,391.822 169.008,370.075 185.041,354.041C201.075,338.008 222.822,329 245.497,329C331.77,329 464.23,329 550.503,329Z" style="fill:rgb(74,175,255);"/>
            </g>
        </g>
    </g>
</svg>
