<?xml version="1.0" encoding="UTF-8" standalone="no"?>
<!DOCTYPE svg PUBLIC "-//W3C//DTD SVG 1.1//EN" "http://www.w3.org/Graphics/SVG/1.1/DTD/svg11.dtd">
<svg width="100%" height="100%" viewBox="0 0 1000 862" version="1.1" xmlns="http://www.w3.org/2000/svg" xmlns:xlink="http://www.w3.org/1999/xlink" xml:space="preserve" xmlns:serif="http://www.serif.com/" style="fill-rule:evenodd;clip-rule:evenodd;stroke-linejoin:round;stroke-miterlimit:2;">
    <g transform="matrix(1,0,0,1,1.13687e-13,-69.1854)">
        <g id="Default" transform="matrix(0.861629,0,0,0.861629,69.1854,69.1854)">
            <path d="M865.454,0C939.762,0 1000,60.238 1000,134.546L1000,865.454C1000,939.762 939.762,1000 865.454,1000L134.546,1000C60.238,1000 0,939.762 0,865.454L0,134.546C0,60.238 60.238,0 134.546,0L865.454,0ZM947,187.546C947,151.862 932.825,117.64 907.592,92.408C882.36,67.175 848.138,53 812.454,53L187.546,53C151.862,53 117.64,67.175 92.408,92.408C67.175,117.64 53,151.862 53,187.546L53,812.454C53,848.138 67.175,882.36 92.408,907.592C117.64,932.825 151.862,947 187.546,947L812.454,947C848.138,947 882.36,932.825 907.592,907.592C932.825,882.36 947,848.138 947,812.454L947,187.546Z" style="fill:white;"/>
            <g transform="matrix(1,0,0,1,-17.5,6.5)">
                <path d="M756.023,168C779.091,168 801.214,177.164 817.525,193.475C833.836,209.786 843,231.909 843,254.977L843,732.023C843,755.091 833.836,777.214 817.525,793.525C801.214,809.836 779.091,819 756.023,819L278.977,819C255.909,819 233.786,809.836 217.475,793.525C201.164,777.214 192,755.091 192,732.023L192,254.977C192,231.909 201.164,209.786 217.475,193.475C233.786,177.164 255.909,168 278.977,168L756.023,168Z" style="fill:white;"/>
            </g>
        </g>
    </g>
</svg>
