<?xml version="1.0" encoding="UTF-8" standalone="no"?>
<!DOCTYPE svg PUBLIC "-//W3C//DTD SVG 1.1//EN" "http://www.w3.org/Graphics/SVG/1.1/DTD/svg11.dtd">
<svg width="100%" height="100%" viewBox="0 0 1000 862" version="1.1" xmlns="http://www.w3.org/2000/svg" xmlns:xlink="http://www.w3.org/1999/xlink" xml:space="preserve" xmlns:serif="http://www.serif.com/" style="fill-rule:evenodd;clip-rule:evenodd;stroke-linejoin:round;stroke-miterlimit:2;">
    <g transform="matrix(1,0,0,1,1.13687e-13,-69.1854)">
        <g id="Image" transform="matrix(0.861629,0,0,0.861629,69.1854,69.1854)">
            <path d="M865.454,0C939.762,0 1000,60.238 1000,134.546L1000,865.454C1000,939.762 939.762,1000 865.454,1000L134.546,1000C60.238,1000 0,939.762 0,865.454L0,134.546C0,60.238 60.238,0 134.546,-0L865.454,0ZM947,187.546C947,151.862 932.825,117.64 907.592,92.408C882.36,67.175 848.138,53 812.454,53L187.546,53C151.862,53 117.64,67.175 92.408,92.408C67.175,117.64 53,151.862 53,187.546L53,812.454C53,848.138 67.175,882.36 92.408,907.592C117.64,932.825 151.862,947 187.546,947L812.454,947C848.138,947 882.36,932.825 907.592,907.592C932.825,882.36 947,848.138 947,812.454L947,187.546Z" style="fill:rgb(108,255,0);"/>
            <g transform="matrix(1,0,0,1,-39.75,53.9706)">
                <path d="M811.015,811L268.485,811C239.036,811 211.687,795.752 196.205,770.701C180.723,745.65 179.315,714.369 192.485,688.029L295.5,482C309.893,453.213 339.316,435.029 371.5,435.029C403.684,435.029 433.107,453.213 447.5,482L466.25,519.5L558.5,335C572.893,306.213 602.316,288.029 634.5,288.029C666.684,288.029 696.107,306.213 710.5,335L887.015,688.029C900.185,714.369 898.777,745.65 883.295,770.701C867.813,795.752 840.464,811 811.015,811Z" style="fill:rgb(108,255,0);"/>
            </g>
            <g transform="matrix(1,0,0,1,27,27)">
                <circle cx="291" cy="236" r="75" style="fill:rgb(108,255,0);"/>
            </g>
        </g>
    </g>
</svg>
