<?xml version="1.0" encoding="UTF-8" standalone="no"?>
<!DOCTYPE svg PUBLIC "-//W3C//DTD SVG 1.1//EN" "http://www.w3.org/Graphics/SVG/1.1/DTD/svg11.dtd">
<svg width="100%" height="100%" viewBox="0 0 1000 862" version="1.1" xmlns="http://www.w3.org/2000/svg" xmlns:xlink="http://www.w3.org/1999/xlink" xml:space="preserve" xmlns:serif="http://www.serif.com/" style="fill-rule:evenodd;clip-rule:evenodd;stroke-linejoin:round;stroke-miterlimit:2;">
    <g transform="matrix(1,0,0,1,1.13687e-13,-69.1854)">
        <g id="_3DModel" serif:id="3DModel" transform="matrix(0.861629,0,0,0.861629,69.1854,69.1854)">
            <path d="M865.454,0C939.762,0 1000,60.238 1000,134.546L1000,865.454C1000,939.762 939.762,1000 865.454,1000L134.546,1000C60.238,1000 0,939.762 0,865.454L0,134.546C0,60.238 60.238,0 134.546,0L865.454,0ZM947,187.546C947,151.862 932.825,117.64 907.592,92.408C882.36,67.175 848.138,53 812.454,53L187.546,53C151.862,53 117.64,67.175 92.408,92.408C67.175,117.64 53,151.862 53,187.546L53,812.454C53,848.138 67.175,882.36 92.408,907.592C117.64,932.825 151.862,947 187.546,947L812.454,947C848.138,947 882.36,932.825 907.592,907.592C932.825,882.36 947,848.138 947,812.454L947,187.546Z" style="fill:rgb(198,41,255);"/>
            <g transform="matrix(1.31166,0,0,1.31166,-207.642,-232.564)">
                <path d="M512.1,312.82C529.055,303.03 549.945,303.03 566.9,312.82L738.565,411.93C755.521,421.72 765.966,439.811 765.966,459.389L765.966,657.611C765.966,677.189 755.521,695.28 738.565,705.07L566.9,804.18C549.945,813.97 529.055,813.97 512.1,804.18L340.435,705.07C323.479,695.28 313.034,677.189 313.034,657.611L313.034,459.389C313.034,439.811 323.479,421.72 340.435,411.93L512.1,312.82ZM357.386,467.318C354.537,465.673 351.032,465.649 348.161,467.256C345.291,468.863 343.478,471.863 343.391,475.152C343.384,475.735 343.375,476.32 343.375,476.906L343.375,640.094C343.375,659.672 353.82,677.763 370.775,687.552L512.1,769.146C514.987,770.813 518.545,770.813 521.432,769.146C524.319,767.479 526.098,764.399 526.098,761.065L526.098,585.067C526.098,572.479 519.382,560.846 508.479,554.552L357.386,467.318ZM708.226,444.003C710.827,442.502 712.428,439.728 712.429,436.726C712.429,433.724 710.827,430.95 708.227,429.449C708.226,429.448 708.225,429.448 708.225,429.448L566.9,347.854C549.945,338.065 529.055,338.065 512.1,347.854L370.773,429.449C368.157,430.96 366.545,433.751 366.545,436.773C366.545,439.794 368.157,442.585 370.773,444.096L521.802,531.292C532.704,537.586 546.136,537.586 557.038,531.292L708.226,444.003ZM552.902,761.065C552.902,764.399 554.681,767.48 557.568,769.147C560.455,770.814 564.013,770.813 566.9,769.146L708.225,687.552C725.18,677.763 735.625,659.672 735.625,640.094L735.625,476.906C735.625,476.284 735.614,475.663 735.593,475.044C735.501,471.763 733.688,468.773 730.823,467.172C727.957,465.571 724.461,465.596 721.618,467.237C684.504,488.651 570.521,554.459 570.521,554.459C559.618,560.753 552.902,572.386 552.902,584.975L552.902,761.065Z" style="fill:rgb(198,41,255);"/>
            </g>
        </g>
    </g>
</svg>
